<?xml version="1.0" standalone="no"?>
<!DOCTYPE svg PUBLIC "-//W3C//DTD SVG 20010904//EN"
 "http://www.w3.org/TR/2001/REC-SVG-20010904/DTD/svg10.dtd">
<svg version="1.0" xmlns="http://www.w3.org/2000/svg"
 width="1000.000000pt" height="135.000000pt" viewBox="0 0 1000.000000 135.000000"
 preserveAspectRatio="xMidYMid meet">

<g transform="translate(0.000000,135.000000) scale(0.100000,-0.100000)"
fill="#000000" stroke="none">
<path d="M560 1321 c0 -5 14 -11 32 -15 57 -11 76 -47 41 -82 -25 -24 -115
-13 -243 32 -131 45 -206 50 -265 16 -102 -58 -125 -195 -44 -253 30 -21 53
-19 31 3 -17 17 -15 64 4 82 23 23 89 20 190 -10 49 -14 118 -32 154 -40 36
-8 75 -17 88 -19 21 -5 22 -11 22 -86 l0 -81 -42 -38 -43 -38 43 -37 42 -37 0
-118 0 -118 -36 -12 c-22 -8 -70 -11 -119 -8 -66 3 -91 9 -128 31 -25 15 -49
32 -52 37 -3 5 44 34 105 65 l110 55 0 185 c0 102 -4 185 -9 185 -4 0 -55 -21
-112 -46 -162 -71 -152 -69 -135 -36 17 34 61 78 98 100 37 22 36 36 -3 28
-78 -15 -190 -107 -242 -197 -118 -209 -4 -473 234 -543 187 -56 391 55 445
241 8 29 14 65 12 80 -3 27 -4 27 -30 -18 -15 -25 -46 -65 -70 -89 l-43 -43
-3 109 -3 109 46 40 46 40 -45 35 -46 34 0 81 0 82 43 12 c75 23 117 78 117
157 0 39 -5 51 -33 79 -32 32 -88 55 -134 55 -13 0 -23 -4 -23 -9z m-280 -561
l0 -159 -31 -16 c-39 -20 -53 -10 -73 53 -15 48 -21 109 -18 193 2 45 3 47 50
67 26 12 53 21 60 22 9 0 12 -38 12 -160z"/>
<path d="M7590 1320 c0 -5 8 -10 18 -10 49 0 81 -62 47 -90 -23 -19 -113 -7
-230 30 -130 41 -201 48 -260 26 -110 -42 -150 -191 -68 -255 34 -27 48 -27
29 1 -23 32 -20 54 12 78 33 26 71 23 207 -17 50 -14 124 -33 165 -42 l75 -16
3 -80 3 -80 -46 -38 -46 -39 46 -40 45 -40 0 -113 0 -113 -32 -13 c-19 -8 -68
-14 -113 -14 -70 0 -87 4 -134 30 -30 17 -56 35 -58 40 -2 6 44 34 102 63
l105 52 0 190 c0 104 -3 190 -6 190 -3 0 -42 -16 -87 -36 -154 -68 -167 -73
-167 -65 0 15 58 82 94 110 66 50 38 56 -52 11 -82 -41 -173 -139 -202 -217
-31 -82 -26 -204 12 -285 34 -74 112 -152 186 -186 68 -32 187 -41 260 -21 61
16 143 68 175 111 35 46 73 134 81 186 8 54 -7 55 -34 2 -12 -23 -40 -60 -63
-83 l-42 -42 -3 110 -3 110 43 37 43 38 -42 36 -43 36 0 78 0 78 43 10 c26 7
55 25 76 46 30 31 35 44 39 94 4 54 2 62 -26 94 -30 33 -85 58 -131 58 -11 0
-21 -4 -21 -10z m-290 -563 l0 -162 -31 -14 c-38 -17 -50 -7 -73 62 -16 49
-21 186 -7 220 6 18 72 54 99 56 9 1 12 -38 12 -162z"/>
<path d="M900 1244 c-52 -36 -96 -67 -98 -69 -2 -1 11 -17 29 -34 l31 -32 -7
-317 -6 -317 -35 -32 c-19 -17 -31 -34 -26 -37 5 -3 15 1 22 9 11 13 21 8 75
-39 l62 -55 82 55 c46 31 81 58 78 61 -3 2 -15 -1 -27 -7 -18 -10 -26 -8 -46
11 -24 22 -24 25 -24 209 0 169 2 189 18 204 18 15 21 14 65 -21 l47 -38 0
-201 c0 -288 -12 -334 -98 -382 -72 -40 -34 -54 73 -27 78 21 122 56 154 124
25 55 26 61 29 295 l3 238 27 24 c28 24 16 33 -17 12 -17 -10 -28 -5 -83 40
-34 29 -67 52 -73 52 -5 0 -39 -23 -75 -50 l-65 -49 -3 220 c-1 120 -6 219
-10 219 -4 -1 -50 -30 -102 -66z"/>
<path d="M6318 1245 c-54 -36 -98 -68 -98 -72 0 -3 11 -16 25 -29 l25 -23 0
-325 0 -325 -35 -27 c-19 -14 -32 -31 -29 -36 3 -5 13 -3 24 7 15 14 18 14 30
0 7 -9 34 -33 60 -55 l47 -39 84 56 c46 31 78 58 71 61 -7 2 -19 -2 -28 -9
-12 -10 -20 -7 -44 16 l-30 29 -2 418 -3 418 -97 -65z"/>
<path d="M2842 1260 c-19 -25 -29 -30 -65 -30 -25 0 -56 9 -77 21 l-35 22 -48
-54 c-80 -90 -108 -127 -99 -133 5 -3 19 5 31 18 l22 23 46 -24 c26 -12 57
-23 70 -23 l23 0 0 -222 0 -222 -161 274 c-178 305 -197 333 -239 355 -94 49
-209 -30 -210 -142 0 -51 10 -54 30 -10 19 41 53 47 86 16 22 -21 24 -30 24
-116 0 -93 0 -93 -25 -93 -69 0 -135 -60 -135 -123 0 -40 24 -92 51 -111 34
-23 38 -20 32 23 -6 42 -3 45 45 56 l32 7 0 -115 0 -114 -40 -6 c-118 -16
-192 -115 -161 -218 16 -53 67 -91 133 -97 54 -5 62 11 10 21 -55 11 -63 90
-11 117 29 16 82 4 117 -25 l29 -24 77 83 c42 47 76 90 76 97 0 7 -10 3 -25
-11 l-24 -23 -31 26 c-17 15 -50 32 -73 38 -23 7 -45 15 -50 19 -4 3 -6 123
-5 266 l3 259 213 -372 c165 -288 218 -373 233 -373 18 0 19 11 19 379 l0 379
35 6 c70 14 138 114 121 180 -8 34 -17 33 -44 -4z"/>
<path d="M4495 1254 c-44 -23 -66 -45 -81 -81 -26 -61 -12 -86 18 -33 21 37
60 40 82 8 13 -17 16 -51 16 -149 l0 -126 -38 -7 c-80 -12 -132 -84 -112 -154
13 -46 19 -56 48 -71 30 -16 37 -9 20 18 -19 30 0 55 46 59 l36 3 0 -164 0
-165 -37 -19 c-76 -38 -105 -155 -56 -221 59 -79 154 -91 368 -48 143 29 176
31 193 14 17 -17 15 -77 -3 -84 -31 -12 -14 -22 20 -12 115 36 141 186 42 247
-57 35 -99 35 -299 2 -102 -17 -194 -28 -204 -25 -54 20 -71 77 -35 113 40 40
153 40 311 2 166 -40 259 -21 287 59 8 24 12 140 12 381 l1 345 30 29 c37 35
32 45 -9 16 l-29 -21 -55 50 c-30 27 -59 50 -63 50 -5 -1 -45 -27 -89 -59
l-80 -59 -3 54 c-2 30 -7 54 -12 54 -6 0 -10 -167 -10 -436 l0 -437 -42 7
c-24 4 -46 10 -49 14 -4 4 -9 176 -11 382 -4 328 -7 379 -22 408 -34 65 -123
91 -191 56z m421 -130 l35 -27 -3 -111 c-3 -109 -3 -110 -30 -126 -25 -13 -31
-13 -55 0 -28 16 -28 17 -31 134 -2 100 0 122 14 137 22 25 29 24 70 -7z m-30
-291 c12 -3 31 0 43 6 20 11 21 10 21 -49 0 -59 -1 -60 -21 -49 -21 11 -46 9
-81 -6 -16 -6 -18 0 -18 55 0 55 2 61 18 55 9 -4 27 -10 38 -12z m45 -123 c17
-10 19 -23 19 -150 0 -138 0 -139 -26 -159 -15 -12 -41 -21 -60 -21 l-34 0 0
160 c0 141 2 160 18 169 22 13 58 14 83 1z"/>
<path d="M7901 1201 l-55 -48 31 -39 c17 -22 40 -47 51 -57 19 -17 21 -17 68
24 27 22 53 45 58 49 7 8 -81 120 -94 120 -3 -1 -29 -22 -59 -49z"/>
<path d="M3385 1083 c-70 -36 -103 -94 -90 -155 4 -17 28 -54 54 -81 l46 -49
3 -182 3 -181 -30 -20 c-16 -10 -27 -23 -25 -27 3 -5 19 1 35 13 l29 20 58
-50 c32 -28 62 -51 66 -51 4 0 34 18 66 40 32 22 64 40 69 40 6 0 40 -18 76
-40 36 -22 70 -40 76 -40 6 0 73 37 150 82 l139 82 0 182 0 182 37 28 c20 15
31 30 24 32 -6 2 -18 -1 -26 -8 -11 -9 -24 -3 -65 32 -27 23 -52 43 -54 43 -2
0 -29 -24 -61 -54 l-56 -53 21 -23 c19 -21 20 -31 18 -224 l-3 -201 -57 36
-58 36 0 168 c0 162 1 170 21 181 21 11 19 14 -41 74 l-63 64 -58 -52 c-32
-29 -59 -57 -59 -63 0 -6 9 -19 20 -29 19 -17 20 -31 20 -217 0 -109 -3 -198
-7 -198 -3 0 -30 16 -60 37 l-53 36 -1 171 c0 105 -5 184 -12 206 -8 22 -31
49 -69 78 -51 38 -58 48 -58 78 0 23 6 38 20 46 45 29 6 38 -45 11z"/>
<path d="M2995 901 l-140 -77 -3 -179 -2 -180 -27 -22 c-33 -27 -25 -41 11
-18 29 19 23 21 130 -57 48 -35 83 -55 90 -49 168 127 259 211 232 211 -4 0
-36 -23 -71 -51 l-65 -51 -56 43 c-31 24 -62 49 -70 55 -8 6 -14 25 -14 41 0
26 13 38 130 118 72 49 130 90 130 92 0 4 -120 185 -129 195 -3 3 -69 -28
-146 -71z m78 -93 c29 -46 56 -88 60 -94 6 -10 -98 -84 -117 -84 -3 0 -6 59
-6 130 0 72 2 130 5 130 3 0 29 -37 58 -82z"/>
<path d="M5393 901 l-133 -76 0 -176 c0 -174 0 -176 -25 -199 -28 -27 -27 -37
3 -19 18 11 29 6 103 -50 46 -34 88 -60 94 -59 6 2 68 37 138 78 l127 75 -1
190 c0 185 0 190 -22 206 -12 8 -51 36 -87 61 l-65 45 -132 -76z m110 -73 l37
-30 0 -190 0 -189 -62 43 -63 44 -3 193 -2 194 27 -18 c16 -10 45 -31 66 -47z"/>
<path d="M6525 840 c-49 -77 -89 -142 -88 -145 7 -27 247 -376 256 -372 19 7
177 118 177 124 0 3 -12 -2 -26 -12 -14 -9 -29 -13 -34 -8 -40 46 -260 389
-256 400 5 11 13 10 48 -8 51 -26 109 -21 145 13 30 27 62 93 63 126 l0 23
-30 -23 c-38 -28 -92 -27 -131 1 -15 12 -29 21 -31 21 -2 0 -43 -63 -93 -140z"/>
<path d="M7858 924 c-43 -30 -78 -59 -78 -64 0 -14 13 -13 28 2 9 9 17 6 37
-12 25 -23 25 -24 25 -206 l0 -182 -36 -27 c-38 -29 -40 -44 -4 -25 19 10 27
6 75 -39 30 -28 57 -51 61 -51 14 0 164 102 164 111 0 12 -7 11 -32 -2 -16 -9
-24 -7 -44 12 -24 22 -24 25 -24 212 l0 189 26 20 c29 23 26 36 -5 16 -18 -11
-24 -8 -58 32 -21 24 -42 49 -48 56 -8 10 -28 1 -87 -42z"/>
<path d="M9215 900 l-140 -76 -3 -185 -2 -184 94 -68 c52 -37 98 -67 101 -67
4 0 59 41 123 92 65 50 119 93 121 94 1 2 1 8 -1 14 -2 6 -33 -11 -71 -40
l-67 -52 -65 52 c-59 47 -65 55 -65 88 0 36 3 39 121 116 66 44 122 83 125 87
4 7 -104 180 -125 200 -3 3 -69 -29 -146 -71z m130 -172 c14 -26 14 -27 -23
-49 -20 -13 -47 -29 -59 -37 l-23 -14 0 133 1 134 45 -70 c25 -38 51 -82 59
-97z"/>
<path d="M9683 912 l-123 -67 0 -96 0 -97 45 -37 46 -37 -35 -38 c-48 -54 -66
-92 -66 -142 0 -46 18 -81 50 -98 18 -10 19 -8 14 20 -4 18 -1 36 6 45 19 23
82 19 122 -8 l34 -24 110 67 109 67 3 104 3 104 -51 38 -51 38 32 36 c38 44
55 82 64 146 8 53 2 58 -31 22 -16 -17 -34 -25 -58 -25 -22 0 -45 9 -64 25
-17 14 -31 25 -33 25 -2 0 -59 -31 -126 -68z m124 -93 c20 -6 55 -9 82 -5 l46
6 -59 -59 c-81 -82 -97 -89 -135 -62 -31 22 -31 23 -31 112 l0 90 30 -35 c17
-19 47 -40 67 -47z m4 -202 c25 -20 27 -29 31 -116 l4 -93 -19 26 c-34 47 -92
69 -165 63 l-64 -5 39 40 c43 46 123 108 138 107 6 0 22 -10 36 -22z"/>
<path d="M1553 898 l-133 -72 0 -179 0 -178 -27 -24 c-16 -13 -25 -27 -21 -31
5 -4 16 0 26 9 10 10 22 17 27 17 4 0 47 -30 96 -66 l88 -65 121 96 c66 54
120 104 120 112 0 12 -8 10 -32 -9 -18 -13 -50 -37 -70 -52 l-37 -28 -65 53
c-57 45 -66 57 -66 85 0 31 8 39 125 119 69 48 125 89 125 93 0 15 -124 192
-134 192 -6 0 -71 -33 -143 -72z m92 -100 l57 -91 -24 -18 c-12 -10 -40 -28
-60 -39 l-38 -21 0 130 c0 72 2 131 4 131 2 0 30 -41 61 -92z"/>
<path d="M5830 924 c-36 -25 -72 -49 -80 -54 -8 -5 -12 -11 -8 -15 3 -3 16 0
27 7 19 12 24 10 46 -17 24 -29 24 -35 25 -201 l0 -171 -35 -24 c-45 -31 -50
-55 -6 -27 17 10 27 5 79 -40 33 -29 63 -52 66 -52 6 0 148 92 165 107 13 10
-10 13 -28 3 -18 -9 -27 -7 -51 12 l-29 23 0 188 -1 188 29 -22 c38 -28 103
-29 132 -3 27 24 45 60 53 106 l7 37 -33 -13 c-28 -12 -38 -12 -68 0 l-34 15
-46 -52 -46 -52 -44 51 c-24 29 -46 52 -49 51 -3 0 -35 -20 -71 -45z"/>
<path d="M8183 918 c-40 -28 -70 -55 -67 -60 3 -4 14 -2 25 5 17 10 22 8 44
-18 24 -29 24 -34 25 -206 0 -163 -1 -177 -20 -194 -11 -10 -20 -21 -20 -24 0
-9 116 -101 127 -101 5 0 33 25 63 55 l54 55 -22 23 c-21 22 -22 32 -22 210 0
177 1 187 20 197 17 9 27 6 60 -20 l40 -32 0 -166 c0 -153 -2 -167 -20 -187
l-21 -22 60 -52 c34 -29 65 -51 70 -49 15 5 111 98 111 107 0 4 -9 16 -20 26
-19 17 -20 31 -20 199 0 171 1 182 20 194 18 11 25 7 65 -29 l45 -42 0 -155
c0 -145 -1 -157 -21 -178 l-22 -23 58 -53 c32 -29 61 -54 66 -56 10 -4 168
100 169 111 0 5 -9 5 -21 2 -14 -5 -28 0 -45 16 -24 22 -24 25 -24 211 l0 188
25 16 c14 9 22 20 19 26 -3 5 -13 3 -23 -6 -10 -9 -21 -16 -25 -16 -5 0 -33
23 -63 50 -30 28 -59 50 -64 50 -5 0 -42 -22 -81 -50 -39 -27 -76 -50 -82 -50
-7 0 -34 23 -61 50 -27 28 -54 50 -61 50 -6 0 -41 -22 -77 -50 -36 -27 -70
-50 -75 -50 -5 0 -28 23 -51 50 -23 28 -48 50 -54 49 -7 0 -44 -23 -84 -51z"/>
</g>
</svg>
